<svg width="64" height="64" viewBox="0 0 64 64" fill="none" xmlns="http://www.w3.org/2000/svg">
  <defs>
    <linearGradient id="logoGradient" x1="0%" y1="0%" x2="100%" y2="100%">
      <stop offset="0%" style="stop-color:#667eea;stop-opacity:1" />
      <stop offset="100%" style="stop-color:#764ba2;stop-opacity:1" />
    </linearGradient>
  </defs>
  
  <!-- Background Circle -->
  <circle cx="32" cy="32" r="30" fill="url(#logoGradient)" stroke="white" stroke-width="4"/>
  
  <!-- Auto Sync Icon - Stylized AS with sync arrows -->
  <g transform="translate(32, 32)">
    <!-- Letter A -->
    <path d="M-12 8 L-8 -8 L-4 -8 L0 8 M-10 2 L-6 2" stroke="white" stroke-width="2.5" fill="none" stroke-linecap="round" stroke-linejoin="round"/>
    
    <!-- Letter S -->
    <path d="M4 -6 C6 -8 10 -8 12 -6 C12 -4 10 -2 8 -2 C10 -2 12 0 12 2 C10 4 6 4 4 2" stroke="white" stroke-width="2.5" fill="none" stroke-linecap="round" stroke-linejoin="round"/>
    
    <!-- Sync arrows around -->
    <path d="M-16 -16 C-12 -20 -4 -20 0 -16" stroke="white" stroke-width="1.5" fill="none" stroke-linecap="round"/>
    <polygon points="-2,-14 2,-16 -2,-18" fill="white"/>
    
    <path d="M16 16 C12 20 4 20 0 16" stroke="white" stroke-width="1.5" fill="none" stroke-linecap="round"/>
    <polygon points="2,14 -2,16 2,18" fill="white"/>
  </g>
</svg>
